<svg xmlns="http://www.w3.org/2000/svg" viewBox="0 0 192 192" width="192" height="192">
  <defs>
    <linearGradient id="grad" x1="0%" y1="0%" x2="100%" y2="100%">
      <stop offset="0%" style="stop-color:#0039A6;stop-opacity:1" />
      <stop offset="100%" style="stop-color:#1e5bb5;stop-opacity:1" />
    </linearGradient>
  </defs>
  <!-- Background circle -->
  <circle cx="96" cy="96" r="88" fill="url(#grad)" />
  <!-- White border -->
  <circle cx="96" cy="96" r="88" fill="none" stroke="white" stroke-width="4" opacity="0.3" />
  <!-- Letter B -->
  <path d="M60 50 L60 142 L105 142 C125 142 140 127 140 110 C140 97 132 87 120 83 C130 79 135 70 135 60 C135 45 122 50 105 50 L60 50 Z M80 65 L100 65 C110 65 115 70 115 78 C115 86 110 91 100 91 L80 91 L80 65 Z M80 106 L105 106 C117 106 122 112 122 120 C122 128 117 127 105 127 L80 127 L80 106 Z" fill="white" />
  <!-- Red accent dot -->
  <circle cx="145" cy="55" r="12" fill="#D52B1E" />
</svg>
